# xmcd
#
# Track frame offsets:
#	150
#	15484
#	28462
#	40885
#	50985
#	66644
#	83471
#	100917
#
# Disc length: 1575 seconds
#
# Revision: 3
# Processed by: cddbd v1.5.2PL0 Copyright (c) Steve Scherf et al.
# Submitted via: audiograbber 1.83.01
#
DISCID=6b062508
DTITLE=Various Artist - New Country - Volume 5 - Number 3
DYEAR=1998
DGENRE=Country
TTITLE0=Sammy Kershaw - Thank God You're Gone
TTITLE1=Bellamy Brothers - My Wife Left Me For My Girlfriend
TTITLE2=John Flynn - Back In My Baby's Arms
TTITLE3=Steve Earle - You Know The Rest
TTITLE4=Breakaway - Lead, Follow Or Get Out Of My Way
TTITLE5=The Killens - Wild Horse
TTITLE6=Willie Nelson - Hard Times Come Again No More
TTITLE7=Jamie Hartford - Somebody's Gonna Pay
EXTD=
EXTT0=
EXTT1=
EXTT2=
EXTT3=
EXTT4=
EXTT5=
EXTT6=
EXTT7=
PLAYORDER=
